<svg width="152" height="45" viewBox="0 0 152 45" fill="none" xmlns="http://www.w3.org/2000/svg">
<path d="M76.9217 38.2037H73.8196L73.2866 39.7174H72.0181L74.6724 32.298H76.0796L78.734 39.7174H77.4547L76.9217 38.2037ZM76.5806 37.2123L75.376 33.7691L74.1608 37.2123H76.5806Z" fill="#99ACAD"/>
<path d="M79.483 36.7752C79.483 36.1712 79.6038 35.6417 79.8455 35.1869C80.0942 34.7249 80.4353 34.3696 80.8688 34.1209C81.3023 33.8721 81.7998 33.7478 82.3613 33.7478C83.0719 33.7478 83.6582 33.9183 84.1202 34.2594C84.5892 34.5935 84.9055 35.0732 85.0689 35.6986H83.7577C83.6511 35.4072 83.4806 35.1798 83.246 35.0163C83.0115 34.8529 82.7166 34.7711 82.3613 34.7711C81.8638 34.7711 81.4658 34.9488 81.1673 35.3041C80.8759 35.6524 80.7303 36.1427 80.7303 36.7752C80.7303 37.4077 80.8759 37.9017 81.1673 38.257C81.4658 38.6123 81.8638 38.79 82.3613 38.79C83.0648 38.79 83.5303 38.4809 83.7577 37.8626H85.0689C84.8984 38.4595 84.5786 38.9357 84.1095 39.291C83.6405 39.6393 83.0577 39.8134 82.3613 39.8134C81.7998 39.8134 81.3023 39.689 80.8688 39.4403C80.4353 39.1844 80.0942 38.8291 79.8455 38.3743C79.6038 37.9123 79.483 37.3793 79.483 36.7752Z" fill="#99ACAD"/>
<path d="M85.8749 36.7752C85.8749 36.1712 85.9958 35.6417 86.2374 35.1869C86.4861 34.7249 86.8273 34.3696 87.2608 34.1209C87.6943 33.8721 88.1918 33.7478 88.7532 33.7478C89.4639 33.7478 90.0502 33.9183 90.5121 34.2594C90.9812 34.5935 91.2974 35.0732 91.4609 35.6986H90.1497C90.0431 35.4072 89.8725 35.1798 89.638 35.0163C89.4035 34.8529 89.1085 34.7711 88.7532 34.7711C88.2557 34.7711 87.8577 34.9488 87.5593 35.3041C87.2679 35.6524 87.1222 36.1427 87.1222 36.7752C87.1222 37.4077 87.2679 37.9017 87.5593 38.257C87.8577 38.6123 88.2557 38.79 88.7532 38.79C89.4568 38.79 89.9223 38.4809 90.1497 37.8626H91.4609C91.2903 38.4595 90.9705 38.9357 90.5015 39.291C90.0324 39.6393 89.4497 39.8134 88.7532 39.8134C88.1918 39.8134 87.6943 39.689 87.2608 39.4403C86.8273 39.1844 86.4861 38.8291 86.2374 38.3743C85.9958 37.9123 85.8749 37.3793 85.8749 36.7752Z" fill="#99ACAD"/>
<path d="M98.0553 36.6367C98.0553 36.857 98.0411 37.056 98.0127 37.2336H93.5248C93.5603 37.7027 93.7344 38.0793 94.0471 38.3636C94.3598 38.6479 94.7436 38.79 95.1984 38.79C95.8522 38.79 96.3142 38.5164 96.5842 37.9692H97.8954C97.7178 38.5093 97.3944 38.9535 96.9254 39.3017C96.4634 39.6428 95.8878 39.8134 95.1984 39.8134C94.637 39.8134 94.1324 39.689 93.6847 39.4403C93.2441 39.1844 92.8958 38.8291 92.64 38.3743C92.3912 37.9123 92.2669 37.3793 92.2669 36.7752C92.2669 36.1712 92.3877 35.6417 92.6293 35.1869C92.8781 34.7249 93.2227 34.3696 93.6634 34.1209C94.1111 33.8721 94.6228 33.7478 95.1984 33.7478C95.7528 33.7478 96.2467 33.8686 96.6802 34.1102C97.1137 34.3518 97.4513 34.693 97.6929 35.1336C97.9345 35.5671 98.0553 36.0681 98.0553 36.6367ZM96.7868 36.2529C96.7797 35.8052 96.6198 35.4463 96.3071 35.1762C95.9944 34.9062 95.6071 34.7711 95.1451 34.7711C94.7258 34.7711 94.3669 34.9062 94.0684 35.1762C93.77 35.4392 93.5923 35.7981 93.5354 36.2529H96.7868Z" fill="#99ACAD"/>
<path d="M101.383 39.8134C100.921 39.8134 100.506 39.7317 100.136 39.5682C99.7736 39.3976 99.4858 39.1702 99.2726 38.886C99.0594 38.5946 98.9457 38.2712 98.9315 37.9159H100.189C100.211 38.1646 100.328 38.3743 100.541 38.5448C100.761 38.7083 101.035 38.79 101.362 38.79C101.703 38.79 101.966 38.7261 102.151 38.5981C102.343 38.4631 102.439 38.2925 102.439 38.0864C102.439 37.8661 102.332 37.7027 102.119 37.5961C101.913 37.4895 101.582 37.3722 101.127 37.2443C100.687 37.1235 100.328 37.0062 100.051 36.8925C99.7736 36.7788 99.532 36.6047 99.3259 36.3702C99.1269 36.1356 99.0274 35.8265 99.0274 35.4427C99.0274 35.13 99.1198 34.8458 99.3046 34.5899C99.4894 34.327 99.7523 34.1209 100.093 33.9716C100.442 33.8224 100.84 33.7478 101.287 33.7478C101.955 33.7478 102.492 33.9183 102.897 34.2594C103.309 34.5935 103.53 35.0518 103.558 35.6346H102.343C102.321 35.3717 102.215 35.162 102.023 35.0057C101.831 34.8493 101.572 34.7711 101.245 34.7711C100.925 34.7711 100.68 34.8315 100.509 34.9524C100.339 35.0732 100.253 35.2331 100.253 35.4321C100.253 35.5884 100.31 35.7199 100.424 35.8265C100.538 35.9331 100.676 36.0184 100.84 36.0823C101.003 36.1392 101.245 36.2138 101.565 36.3062C101.991 36.4199 102.339 36.5372 102.609 36.658C102.886 36.7717 103.124 36.9423 103.323 37.1697C103.522 37.3971 103.626 37.6991 103.633 38.0758C103.633 38.4098 103.54 38.7083 103.355 38.9712C103.171 39.2342 102.908 39.4403 102.567 39.5895C102.233 39.7388 101.838 39.8134 101.383 39.8134Z" fill="#99ACAD"/>
<path d="M107.078 39.8134C106.616 39.8134 106.2 39.7317 105.831 39.5682C105.468 39.3976 105.18 39.1702 104.967 38.886C104.754 38.5946 104.64 38.2712 104.626 37.9159H105.884C105.905 38.1646 106.022 38.3743 106.236 38.5448C106.456 38.7083 106.73 38.79 107.056 38.79C107.398 38.79 107.661 38.7261 107.845 38.5981C108.037 38.4631 108.133 38.2925 108.133 38.0864C108.133 37.8661 108.027 37.7027 107.813 37.5961C107.607 37.4895 107.277 37.3722 106.822 37.2443C106.381 37.1235 106.022 37.0062 105.745 36.8925C105.468 36.7788 105.226 36.6047 105.02 36.3702C104.821 36.1356 104.722 35.8265 104.722 35.4427C104.722 35.13 104.814 34.8458 104.999 34.5899C105.184 34.327 105.447 34.1209 105.788 33.9716C106.136 33.8224 106.534 33.7478 106.982 33.7478C107.65 33.7478 108.186 33.9183 108.592 34.2594C109.004 34.5935 109.224 35.0518 109.252 35.6346H108.037C108.016 35.3717 107.909 35.162 107.717 35.0057C107.525 34.8493 107.266 34.7711 106.939 34.7711C106.619 34.7711 106.374 34.8315 106.204 34.9524C106.033 35.0732 105.948 35.2331 105.948 35.4321C105.948 35.5884 106.005 35.7199 106.118 35.8265C106.232 35.9331 106.371 36.0184 106.534 36.0823C106.698 36.1392 106.939 36.2138 107.259 36.3062C107.685 36.4199 108.034 36.5372 108.304 36.658C108.581 36.7717 108.819 36.9423 109.018 37.1697C109.217 37.3971 109.32 37.6991 109.327 38.0758C109.327 38.4098 109.235 38.7083 109.05 38.9712C108.865 39.2342 108.602 39.4403 108.261 39.5895C107.927 39.7388 107.533 39.8134 107.078 39.8134Z" fill="#99ACAD"/>
<path d="M115.541 39.8134C115.079 39.8134 114.664 39.7317 114.294 39.5682C113.932 39.3976 113.644 39.1702 113.431 38.886C113.217 38.5946 113.104 38.2712 113.09 37.9159H114.347C114.369 38.1646 114.486 38.3743 114.699 38.5448C114.92 38.7083 115.193 38.79 115.52 38.79C115.861 38.79 116.124 38.7261 116.309 38.5981C116.501 38.4631 116.597 38.2925 116.597 38.0864C116.597 37.8661 116.49 37.7027 116.277 37.5961C116.071 37.4895 115.74 37.3722 115.286 37.2443C114.845 37.1235 114.486 37.0062 114.209 36.8925C113.932 36.7788 113.69 36.6047 113.484 36.3702C113.285 36.1356 113.185 35.8265 113.185 35.4427C113.185 35.13 113.278 34.8458 113.463 34.5899C113.647 34.327 113.91 34.1209 114.251 33.9716C114.6 33.8224 114.998 33.7478 115.445 33.7478C116.113 33.7478 116.65 33.9183 117.055 34.2594C117.467 34.5935 117.688 35.0518 117.716 35.6346H116.501C116.479 35.3717 116.373 35.162 116.181 35.0057C115.989 34.8493 115.73 34.7711 115.403 34.7711C115.083 34.7711 114.838 34.8315 114.667 34.9524C114.497 35.0732 114.411 35.2331 114.411 35.4321C114.411 35.5884 114.468 35.7199 114.582 35.8265C114.696 35.9331 114.834 36.0184 114.998 36.0823C115.161 36.1392 115.403 36.2138 115.723 36.3062C116.149 36.4199 116.497 36.5372 116.767 36.658C117.044 36.7717 117.283 36.9423 117.481 37.1697C117.68 37.3971 117.784 37.6991 117.791 38.0758C117.791 38.4098 117.698 38.7083 117.513 38.9712C117.329 39.2342 117.066 39.4403 116.725 39.5895C116.391 39.7388 115.996 39.8134 115.541 39.8134Z" fill="#99ACAD"/>
<path d="M124.391 33.8437L120.788 42.4784H119.53L120.724 39.6215L118.411 33.8437H119.765L121.417 38.321L123.133 33.8437H124.391Z" fill="#99ACAD"/>
<path d="M127.44 39.8134C126.978 39.8134 126.563 39.7317 126.193 39.5682C125.831 39.3976 125.543 39.1702 125.33 38.886C125.116 38.5946 125.003 38.2712 124.988 37.9159H126.246C126.268 38.1646 126.385 38.3743 126.598 38.5448C126.818 38.7083 127.092 38.79 127.419 38.79C127.76 38.79 128.023 38.7261 128.208 38.5981C128.4 38.4631 128.496 38.2925 128.496 38.0864C128.496 37.8661 128.389 37.7027 128.176 37.5961C127.97 37.4895 127.639 37.3722 127.184 37.2443C126.744 37.1235 126.385 37.0062 126.108 36.8925C125.831 36.7788 125.589 36.6047 125.383 36.3702C125.184 36.1356 125.084 35.8265 125.084 35.4427C125.084 35.13 125.177 34.8458 125.362 34.5899C125.546 34.327 125.809 34.1209 126.15 33.9716C126.499 33.8224 126.897 33.7478 127.344 33.7478C128.012 33.7478 128.549 33.9183 128.954 34.2594C129.366 34.5935 129.587 35.0518 129.615 35.6346H128.4C128.378 35.3717 128.272 35.162 128.08 35.0057C127.888 34.8493 127.629 34.7711 127.302 34.7711C126.982 34.7711 126.737 34.8315 126.566 34.9524C126.396 35.0732 126.31 35.2331 126.31 35.4321C126.31 35.5884 126.367 35.7199 126.481 35.8265C126.595 35.9331 126.733 36.0184 126.897 36.0823C127.06 36.1392 127.302 36.2138 127.622 36.3062C128.048 36.4199 128.396 36.5372 128.666 36.658C128.943 36.7717 129.181 36.9423 129.38 37.1697C129.579 37.3971 129.683 37.6991 129.69 38.0758C129.69 38.4098 129.597 38.7083 129.412 38.9712C129.228 39.2342 128.965 39.4403 128.624 39.5895C128.29 39.7388 127.895 39.8134 127.44 39.8134Z" fill="#99ACAD"/>
<path d="M132.421 34.8351V38.0864C132.421 38.3068 132.47 38.4667 132.57 38.5661C132.676 38.6585 132.854 38.7047 133.103 38.7047H133.849V39.7174H132.89C132.342 39.7174 131.923 39.5895 131.632 39.3337C131.34 39.0778 131.195 38.6621 131.195 38.0864V34.8351H130.502V33.8437H131.195V32.3833H132.421V33.8437H133.849V34.8351H132.421Z" fill="#99ACAD"/>
<path d="M140.352 36.6367C140.352 36.857 140.338 37.056 140.31 37.2336H135.822C135.857 37.7027 136.032 38.0793 136.344 38.3636C136.657 38.6479 137.041 38.79 137.496 38.79C138.149 38.79 138.611 38.5164 138.881 37.9692H140.193C140.015 38.5093 139.692 38.9535 139.222 39.3017C138.761 39.6428 138.185 39.8134 137.496 39.8134C136.934 39.8134 136.43 39.689 135.982 39.4403C135.541 39.1844 135.193 38.8291 134.937 38.3743C134.688 37.9123 134.564 37.3793 134.564 36.7752C134.564 36.1712 134.685 35.6417 134.926 35.1869C135.175 34.7249 135.52 34.3696 135.96 34.1209C136.408 33.8721 136.92 33.7478 137.496 33.7478C138.05 33.7478 138.544 33.8686 138.977 34.1102C139.411 34.3518 139.748 34.693 139.99 35.1336C140.232 35.5671 140.352 36.0681 140.352 36.6367ZM139.084 36.2529C139.077 35.8052 138.917 35.4463 138.604 35.1762C138.291 34.9062 137.904 34.7711 137.442 34.7711C137.023 34.7711 136.664 34.9062 136.366 35.1762C136.067 35.4392 135.889 35.7981 135.833 36.2529H139.084Z" fill="#99ACAD"/>
<path d="M148.659 33.7478C149.121 33.7478 149.533 33.8437 149.895 34.0356C150.265 34.2275 150.553 34.5117 150.759 34.8884C150.972 35.2651 151.079 35.7199 151.079 36.2529V39.7174H149.874V36.4341C149.874 35.9082 149.743 35.5067 149.48 35.2295C149.217 34.9452 148.858 34.8031 148.403 34.8031C147.948 34.8031 147.586 34.9452 147.316 35.2295C147.053 35.5067 146.921 35.9082 146.921 36.4341V39.7174H145.717V36.4341C145.717 35.9082 145.585 35.5067 145.322 35.2295C145.059 34.9452 144.7 34.8031 144.245 34.8031C143.791 34.8031 143.428 34.9452 143.158 35.2295C142.895 35.5067 142.764 35.9082 142.764 36.4341V39.7174H141.548V33.8437H142.764V34.5153C142.963 34.2737 143.215 34.0853 143.521 33.9503C143.826 33.8153 144.153 33.7478 144.501 33.7478C144.97 33.7478 145.39 33.8473 145.759 34.0462C146.129 34.2452 146.413 34.5331 146.612 34.9097C146.79 34.5544 147.067 34.2737 147.443 34.0676C147.82 33.8544 148.225 33.7478 148.659 33.7478Z" fill="#99ACAD"/>
<rect x="5" y="22.7394" width="24.9745" height="24.9745" transform="rotate(-45 5 22.7394)" stroke="#39716C" stroke-width="5.99792"/>
<path d="M22.6596 5.07977L5 22.7394L22.6596 40.399" stroke="#E75B28" stroke-width="5.99792" stroke-linecap="square"/>
<rect x="20.6992" y="22.7394" width="24.9745" height="24.9745" transform="rotate(-45 20.6992 22.7394)" stroke="#39716C" stroke-width="5.99792"/>
<path d="M38.3588 5.07977L20.6992 22.7394L38.3588 40.399" stroke="#E75B28" stroke-width="5.99792" stroke-linecap="square"/>
<rect x="30.5107" y="17.1658" width="5.99555" height="1.29811" transform="rotate(-45 30.5107 17.1658)" fill="#99ACAD"/>
<rect x="22.6597" y="9.31921" width="5.99555" height="1.29811" transform="rotate(-45 22.6597 9.31921)" fill="#99ACAD"/>
<rect x="38.3584" y="9.32422" width="5.99555" height="1.29811" transform="rotate(-45 38.3584 9.32422)" fill="#99ACAD"/>
<rect x="26.2671" y="32.5535" width="5.99555" height="1.29811" transform="rotate(45 26.2671 32.5535)" fill="#99ACAD"/>
</svg>
